<svg version="1.0" xmlns="http://www.w3.org/2000/svg" width="800.000000" height="800.000000" viewBox="0 0 800.000000 800.000000" preserveAspectRatio="xMidYMid meet">
  <metadata>
    <rdf:RDF xmlns:rdf="http://www.w3.org/1999/02/22-rdf-syntax-ns#" xmlns:rdfs="http://www.w3.org/2000/01/rdf-schema#" xmlns:dc="http://purl.org/dc/elements/1.1/">
      <rdf:Description dc:format="image/svg+xml" dc:Label="1" dc:ContentProducer="001191330110MACRLGPT8B00000" dc:ProduceID="380231876" dc:ReservedCode1="85h7uDx05JmA+qSddmRiAyFX9qNynen0ScX+zfRa5v8=" dc:ContentPropagator="001191330110MACRLGPT8B00000" dc:PropagateID="380231876" dc:ReservedCode2="85h7uDx05JmA+qSddmRiAyFX9qNynen0ScX+zfRa5v8="/>
    </rdf:RDF>
  </metadata>
  <g transform="translate(0.000000,800.000000) scale(0.100000,-0.100000)" fill="#000000" stroke="none">
    <path d="M2730 5954 c-8 -2 -188 -15 -400 -29 -426 -29 -438 -32 -473 -98 -18 -35 -18 -42 12 -499 17 -255 42 -623 56 -818 14 -195 38 -548 55 -784 16 -236 31 -430 32 -431 2 -2 179 14 393 36 435 43 438 43 480 -19 30 -44 32 -95 5 -139 -37 -61 -40 -62 -462 -105 -216 -22 -394 -41 -396 -43 -2 -1 4 -112 13 -246 18 -269 25 -297 84 -336 20 -14 49 -23 70 -23 31 0 777 65 989 85 101 10 102 -4 -37 404 -75 217 -121 368 -121 392 0 35 43 244 202 987 35 165 39 195 27 206 -8 8 -194 158 -414 334 -233 186 -406 331 -413 347 -30 66 -16 95 230 470 100 154 175 271 187 294 11 20 10 21 -46 20 -32 -1 -65 -3 -73 -5z"/>
    <path d="M3797 5928 c-36 -39 -267 -332 -287 -364 -13 -20 -8 -29 66 -110 44 -49 163 -186 265 -304 101 -118 235 -273 297 -345 133 -151 146 -173 139 -228 -6 -43 -1 -36 -506 -692 -343 -446 -461 -604 -461 -619 0 -7 39 -124 86 -262 47 -137 93 -271 101 -297 18 -59 11 -106 -22 -146 l-25 -29 47 -6 c27 -3 201 -20 388 -36 517 -46 1105 -98 1347 -120 272 -25 278 -25 319 3 59 40 58 34 92 524 4 63 36 54 -293 83 -129 12 -554 50 -944 85 -779 71 -754 67 -790 138 -24 50 -15 98 29 145 l34 37 88 -1 c48 -1 187 -11 308 -22 121 -12 513 -49 870 -82 358 -33 665 -62 682 -64 40 -6 39 -11 53 194 6 85 28 405 50 710 39 536 93 1302 106 1502 10 146 -20 195 -129 204 -93 8 -1143 83 -1452 104 -165 10 -328 22 -363 26 -62 6 -64 5 -95 -28z m1228 -732 c63 -30 128 -96 155 -159 26 -59 28 -158 5 -213 -59 -142 -228 -218 -374 -169 -74 24 -154 100 -181 173 -46 120 -7 256 95 333 60 46 93 57 180 58 54 1 81 -5 120 -23z"/>
  </g>
</svg>