<svg version="1.0" xmlns="http://www.w3.org/2000/svg" width="800.000000" height="800.000000" viewBox="0 0 800.000000 800.000000" preserveAspectRatio="xMidYMid meet">
  <metadata>
    <rdf:RDF xmlns:rdf="http://www.w3.org/1999/02/22-rdf-syntax-ns#" xmlns:rdfs="http://www.w3.org/2000/01/rdf-schema#" xmlns:dc="http://purl.org/dc/elements/1.1/">
      <rdf:Description dc:format="image/svg+xml" dc:Label="1" dc:ContentProducer="001191330110MACRLGPT8B00000" dc:ProduceID="373084495" dc:ReservedCode1="FiXf6YVMGBLfzyhGmBf0/fq5dVaIlIqGqEEsg68zzEE=" dc:ContentPropagator="001191330110MACRLGPT8B00000" dc:PropagateID="373084495" dc:ReservedCode2="FiXf6YVMGBLfzyhGmBf0/fq5dVaIlIqGqEEsg68zzEE="/>
    </rdf:RDF>
  </metadata>
  <g transform="translate(0.000000,800.000000) scale(0.100000,-0.100000)" fill="#000000" stroke="none">
    <path d="M4724 6359 c-118 -15 -231 -95 -281 -198 l-28 -56 -5 -1015 -5 -1015 -282 -3 -283 -2 -28 55 c-54 109 -180 227 -307 288 -59 28 -181 67 -245 77 -84 13 -257 13 -340 -1 -173 -28 -345 -114 -465 -234 -92 -92 -141 -175 -178 -304 l-24 -83 -76 -52 c-109 -74 -160 -120 -242 -218 -122 -144 -202 -301 -251 -488 -35 -131 -44 -356 -20 -485 46 -248 139 -431 308 -611 170 -179 351 -284 608 -352 95 -25 96 -25 665 -29 624 -5 814 2 1053 43 835 140 1463 563 1815 1224 51 96 107 226 107 250 0 6 -748 9 -2041 9 -1123 0 -2043 2 -2046 5 -3 3 52 65 123 138 71 73 168 174 216 223 l88 91 1892 3 c1041 1 1896 5 1901 8 10 6 -1 96 -20 158 -32 101 -120 196 -231 248 l-67 32 -575 5 -575 5 -3 613 c-1 399 1 612 8 612 5 0 40 -19 77 -41 38 -23 210 -125 383 -227 173 -101 380 -223 460 -270 195 -114 259 -131 363 -92 131 49 196 197 184 419 -5 104 -32 246 -61 327 -70 198 -219 416 -386 562 -193 169 -428 287 -690 346 -183 40 -360 53 -496 35z"/>
  </g>
</svg>